<?xml version="1.0" encoding="UTF-8" standalone="no"?>
<!-- Created with Inkscape (http://www.inkscape.org/) -->

<svg
   xmlns:dc="http://purl.org/dc/elements/1.1/"
   xmlns:cc="http://creativecommons.org/ns#"
   xmlns:rdf="http://www.w3.org/1999/02/22-rdf-syntax-ns#"
   xmlns:svg="http://www.w3.org/2000/svg"
   xmlns="http://www.w3.org/2000/svg"
   xmlns:xlink="http://www.w3.org/1999/xlink"
   xmlns:sodipodi="http://sodipodi.sourceforge.net/DTD/sodipodi-0.dtd"
   xmlns:inkscape="http://www.inkscape.org/namespaces/inkscape"
   width="155mm"
   height="143mm"
   viewBox="0 0 155 143"
   version="1.1"
   id="svg3276"
   inkscape:version="0.92.4 (5da689c313, 2019-01-14)"
   sodipodi:docname="bg_btn.svg">
  <defs
     id="defs3270">
    <clipPath
       clipPathUnits="userSpaceOnUse"
       id="clipPath62">
      <path
         d="m 252.727,1021.49 h 441.66 V 611.525 h -441.66 z"
         id="path60"
         inkscape:connector-curvature="0" />
    </clipPath>
    <linearGradient
       x1="0"
       y1="0"
       x2="1"
       y2="0"
       gradientUnits="userSpaceOnUse"
       gradientTransform="matrix(303.96915,277.19156,277.19156,-303.96915,332.56543,679.13232)"
       spreadMethod="pad"
       id="linearGradient72">
      <stop
         style="stop-opacity:1;stop-color:#231f20"
         offset="0"
         id="stop68" />
      <stop
         style="stop-opacity:1;stop-color:#ffffff"
         offset="1"
         id="stop70" />
    </linearGradient>
    <clipPath
       clipPathUnits="userSpaceOnUse"
       id="clipPath30">
      <path
         d="M 282.822,994.312 H 664.127 V 641.744 H 282.822 Z"
         id="path28"
         inkscape:connector-curvature="0" />
    </clipPath>
    <linearGradient
       x1="0"
       y1="0"
       x2="1"
       y2="0"
       gradientUnits="userSpaceOnUse"
       gradientTransform="matrix(-251.13383,251.9754,-251.9754,-251.13383,589.6748,692.02686)"
       spreadMethod="pad"
       id="linearGradient40">
      <stop
         style="stop-opacity:1;stop-color:#231f20"
         offset="0"
         id="stop36" />
      <stop
         style="stop-opacity:1;stop-color:#ffffff"
         offset="1"
         id="stop38" />
    </linearGradient>
    <clipPath
       clipPathUnits="userSpaceOnUse"
       id="clipPath62-4">
      <path
         d="m 252.727,1021.49 h 441.66 V 611.525 h -441.66 z"
         id="path60-6"
         inkscape:connector-curvature="0" />
    </clipPath>
    <linearGradient
       inkscape:collect="always"
       xlink:href="#linearGradient40"
       id="linearGradient4078"
       gradientUnits="userSpaceOnUse"
       gradientTransform="matrix(-251.13383,251.9754,-251.9754,-251.13383,589.6748,692.02686)"
       x1="0"
       y1="0"
       x2="1"
       y2="0"
       spreadMethod="pad" />
    <linearGradient
       inkscape:collect="always"
       xlink:href="#linearGradient72"
       id="linearGradient4080"
       gradientUnits="userSpaceOnUse"
       gradientTransform="matrix(303.96915,277.19156,277.19156,-303.96915,332.56543,679.13232)"
       x1="0"
       y1="0"
       x2="1"
       y2="0"
       spreadMethod="pad" />
    <linearGradient
       inkscape:collect="always"
       xlink:href="#linearGradient40"
       id="linearGradient4082"
       gradientUnits="userSpaceOnUse"
       gradientTransform="matrix(-251.13383,251.9754,-251.9754,-251.13383,589.6748,692.02686)"
       x1="0"
       y1="0"
       x2="1"
       y2="0"
       spreadMethod="pad" />
    <linearGradient
       inkscape:collect="always"
       xlink:href="#linearGradient72"
       id="linearGradient4084"
       gradientUnits="userSpaceOnUse"
       gradientTransform="matrix(303.96915,277.19156,277.19156,-303.96915,332.56543,679.13232)"
       x1="0"
       y1="0"
       x2="1"
       y2="0"
       spreadMethod="pad" />
  </defs>
  <sodipodi:namedview
     id="base"
     pagecolor="#ffffff"
     bordercolor="#666666"
     borderopacity="1.0"
     inkscape:pageopacity="0.0"
     inkscape:pageshadow="2"
     inkscape:zoom="0.98994949"
     inkscape:cx="245.64923"
     inkscape:cy="289.86534"
     inkscape:document-units="mm"
     inkscape:current-layer="layer1"
     showgrid="false"
     inkscape:window-width="1920"
     inkscape:window-height="1017"
     inkscape:window-x="1016"
     inkscape:window-y="-8"
     inkscape:window-maximized="1" />
  <metadata
     id="metadata3273">
    <rdf:RDF>
      <cc:Work
         rdf:about="">
        <dc:format>image/svg+xml</dc:format>
        <dc:type
           rdf:resource="http://purl.org/dc/dcmitype/StillImage" />
        <dc:title></dc:title>
      </cc:Work>
    </rdf:RDF>
  </metadata>
  <g
     inkscape:label="Calque 1"
     inkscape:groupmode="layer"
     id="layer1"
     transform="translate(0,-154)">
    <g
       id="g4128"
       transform="matrix(0.9074376,0,0,0.90373043,-0.07419118,154.51775)">
      <g
         id="g3932"
         transform="matrix(0.35277777,0,0,-0.35277777,-23.55903,373.49566)">
        <g
           id="g20"
           transform="translate(85.1776,855.7477)">
          <path
             d="M 0,0 C 4.774,0.411 13.841,-4.236 20.626,-5.428 17.391,10.877 -0.086,12.941 -4.342,28.226 3.072,23.699 5.649,14.334 16.284,13.027 17.61,25.857 0.495,34.482 4.342,49.938 c 3.406,-3.47 5.28,-8.472 8.685,-11.942 2.927,5.852 0.081,15.257 -1.086,20.627 7.322,-3.535 15.456,-6.257 23.884,-8.685 -0.669,5.137 -12.856,8.12 -14.113,16.284 6.249,-2.798 12.299,-5.794 22.798,-4.343 -4.949,9.526 -14.836,14.115 -22.798,20.627 6.232,2.452 16.416,0.953 22.798,3.257 -0.107,8.939 -7.801,10.293 -7.599,19.54 4.132,-0.932 7.193,-2.939 13.027,-2.171 -0.052,6.1 -1.147,11.157 -2.171,16.284 3.721,-4.963 9.363,-8.006 15.198,-10.856 0.91,-3.069 1.261,-6.701 2.171,-9.77 8.05,5.867 5.606,24.367 3.257,34.739 6.769,-5.897 12.934,-12.396 15.198,-22.798 14.071,5.863 6.477,27.273 3.257,39.082 5.892,-6.412 10.232,-14.375 16.284,-20.626 5.02,6.979 6.2,19.652 4.343,30.396 4.806,-5.326 7.177,-13.086 10.856,-19.54 1.976,15.031 4.826,29.188 13.027,37.996 2.417,-6.029 -2.765,-19.205 2.171,-24.969 9.626,4.849 5.911,23.038 18.455,24.969 -1.305,-5.689 -3.022,-19.12 2.172,-21.712 1.863,3.565 2.873,7.983 3.257,13.027 3.584,-2.567 3.646,-8.657 5.427,-13.027 5.453,-0.025 9.504,1.353 9.771,6.513 4.479,-4.228 10.722,-2.763 16.284,0 v 7.599 c 1.717,-2.263 3.539,-4.422 4.342,-7.599 4.574,4.835 3.851,14.967 6.514,21.713 4.326,-9.788 5.18,-23.046 22.798,-19.541 3.522,2.63 1.122,11.18 3.257,15.198 3.952,-2.562 3.947,-9.08 9.77,-9.771 5.777,3.27 5.354,12.74 5.428,21.713 6.417,-5.163 11.804,-11.357 16.285,-18.456 3.156,5.364 -1.498,12.226 -1.086,18.456 8.708,-8.3 15.068,-18.947 19.541,-31.483 6.772,2.637 7.582,11.235 13.027,15.199 h 13.027 c -1.455,-5.784 -5.423,-9.052 -4.342,-17.37 7.499,4.826 23.296,10.486 31.482,2.171 -3.632,-3.606 -8.02,-6.455 -8.685,-13.027 5.529,-1.709 12.343,-2.131 19.541,-2.171 -0.964,-2.292 -3.304,-3.209 -3.256,-6.514 9.58,-14.075 43.603,4.583 51.022,-14.113 -1.283,-2.924 -5.66,0.005 -7.599,0 v -4.342 c 11.145,-3.33 21.543,-7.406 29.312,-14.113 -1.577,-1.504 -7.286,2.069 -10.856,2.171 -4.617,-1.477 -3.885,-11.193 -1.086,-14.113 13.389,0.724 22.874,-2.457 24.969,-13.027 -9.892,0.484 -17.336,-1.481 -16.284,-11.941 8.644,0.054 18.613,5.074 21.712,-3.257 -15.885,2.532 -23.966,-19.329 -1.086,-15.199 -3.057,-5.438 -16.013,-6.188 -11.941,-15.198 17.92,2.921 27.778,-11.184 37.996,-19.541 -8.325,2.354 -23.605,0.125 -30.397,-5.428 8.129,-4.175 19.586,-5.021 27.14,-9.771 -2.065,0.501 -13.69,0.762 -18.455,2.172 -1.443,-17.003 17.048,-14.073 21.712,-24.969 -6.121,-3.197 -13.662,1.514 -21.712,0 0.725,-4.702 5.024,-5.832 5.428,-10.856 -3.237,2.552 -7.99,3.589 -11.942,5.428 -2.065,-5.64 7.579,-8.111 10.857,-11.942 -3.591,-3.519 -6.974,2.382 -10.857,2.171 -7.418,-12.854 9.784,-15.016 10.857,-26.054 -4.652,-2.579 -7.888,-1.724 -14.114,-1.086 -4.91,-13.058 8.733,-22.941 8.685,-37.996 -0.382,-5.204 -3.251,2.318 -5.428,2.171 -4.172,-1.256 -1.346,-9.51 -2.171,-14.113 -2.934,2.855 -3.345,8.236 -7.599,9.771 -2.527,-9.777 -0.368,-24.24 -1.086,-35.825 -3.111,5.936 -4.72,13.373 -9.771,17.37 -2.365,-14.166 5.488,-36.045 -3.257,-47.767 -1.855,9 -4.385,17.326 -11.941,20.627 -4.484,-15.057 0.071,-39.153 -11.941,-46.681 -0.207,12.82 1.041,27.095 -7.6,31.482 -1.67,-3.397 -2.107,-8.024 -2.171,-13.027 -0.493,-4.694 -4.927,3.136 -7.6,3.257 -1.849,-4.664 -2.275,-10.751 -2.17,-17.37 -5.709,0.442 -6.841,5.463 -13.028,5.428 -3.014,-3.86 -3.321,-10.429 -4.342,-16.284 -3.323,1.743 -5.352,4.781 -6.513,8.685 -4.535,-0.17 -4.076,-5.333 -5.429,-8.685 -1.9,2.442 -2.58,6.105 -4.342,8.685 -4.975,-5.519 -4.75,-16.239 -7.599,-23.884 -4.456,8.934 -11.253,15.525 -16.285,23.884 -4.839,-12.893 -7.372,-28.091 -16.284,-36.91 -3.897,6.233 -3.121,17.142 -8.684,21.712 -4.545,-2.352 -4.036,-15.478 -2.172,-20.627 -3.719,1.003 -7.236,11.565 -10.856,16.284 -3.183,-0.074 -4.031,-2.482 -5.427,-4.343 -2.059,1.923 -3.37,4.592 -5.429,6.514 -4.736,-0.691 -3.665,-7.191 -8.684,-7.599 -0.209,4.856 -1.182,8.951 -4.343,10.855 -5.476,-5.379 -5.417,-16.293 -13.027,-19.54 -2.833,5.852 -0.605,16.764 -5.428,20.626 -30.8,0.695 -51.626,11.334 -58.623,-16.284 -4.263,1.527 -1.284,10.295 -2.171,15.198 -3.169,-1.535 -3.445,-5.962 -5.428,-8.684 -2.706,4.17 -5.612,8.139 -6.513,14.113 -5.329,0.77 -4.135,-4.976 -8.685,-2.172 -4.001,5.046 -2.18,15.914 -8.685,18.456 -2.594,-4.282 -3.752,-9.999 -5.428,-15.199 -5.49,2.472 -5.392,10.531 -5.428,18.456 -4.117,-5.654 -3.956,-15.585 -6.514,-22.798 -3.761,2.028 -3.093,8.487 -4.342,13.028 -4.999,-0.43 -4.169,-6.688 -4.343,-11.943 -6.795,3.699 -4.09,16.899 -6.513,24.97 -2.308,-7.102 -5.076,-13.742 -5.428,-22.798 -12.419,9.083 -7.621,32.892 -7.6,52.109 -5.737,-1.862 -7.713,-7.485 -9.77,-13.027 -2.829,2.901 -0.217,9.571 0,13.027 -6.233,-1.218 -9.766,-10.206 -15.198,-8.685 0.926,5.95 5.308,8.442 6.513,14.113 -5.166,0.803 -14.298,-3.779 -22.798,-3.257 5.182,9.003 15.453,18.468 10.856,33.654 -4.946,1.328 -4.258,-2.978 -8.684,-2.172 -0.985,5.529 2.238,15.266 -2.172,17.37 -2.837,-2.953 -3.386,-8.193 -5.427,-11.941 -4.192,6.236 -1.095,17.562 1.085,23.883 -10.083,-2.943 -13.147,-12.906 -14.113,-24.969 -7.403,20.586 7.338,39.195 7.599,55.366 -8.726,-1.045 -17.327,-2.213 -26.054,-3.257 4.687,2.912 10.777,4.422 16.284,6.514 -5.404,5.451 -13.005,8.707 -20.627,11.941 2.824,2.244 7.831,2.302 13.028,2.172 -0.407,6.843 -12.228,11.646 -15.198,19.541 6.126,0.335 9.654,-1.926 16.283,-1.086 C 14.408,-14.531 6.468,-5.121 0,0"
             style="fill:#8bc53f;fill-opacity:1;fill-rule:evenodd;stroke:none"
             id="path22"
             inkscape:connector-curvature="0" />
        </g>
        <g
           id="g24"
           transform="translate(-162.1256,19.1998)">
          <g
             id="g26" />
          <g
             id="g54">
            <g
               clip-path="url(#clipPath30)"
               id="g52"
               style="opacity:0.30000299">
              <g
                 id="g50">
                <g
                   id="g48">
                  <g
                     id="g46">
                    <g
                       id="g44">
                      <path
                         d="m 414.975,641.841 c 0.378,1.112 0.718,2.312 1.067,3.54 1.256,4.425 2.554,9.001 6.197,11.711 l 1.488,1.107 1.605,-0.93 c 2.903,-1.682 3.95,-5.83 4.028,-10.154 1.127,1.931 2.286,3.83 3.483,5.246 l 0.923,1.093 1.427,-0.1 c 2.224,-0.159 3.66,-1.151 4.649,-2.25 0.829,1.021 1.689,2.076 2.797,3.015 l 1.032,0.874 1.329,-0.259 c 2.72,-0.531 4.058,-2.328 4.907,-3.906 0.801,2.364 2.175,4.586 4.603,5.898 l 1.923,1.037 1.484,-1.605 c 2.281,-2.468 3.406,-5.635 4.494,-8.697 0.774,-2.179 1.484,-4.18 2.507,-5.717 0.196,1.045 0.35,2.161 0.503,3.262 0.625,4.504 1.27,9.166 4.76,11.696 l 0.772,0.559 0.952,-0.025 c 6.008,-0.151 11.726,0.172 16.772,0.458 4.847,0.273 9.426,0.532 13.506,0.336 7.028,-0.335 14.438,-1.972 19.03,-10.066 0.01,1.269 0.086,2.513 0.346,3.641 l 0.834,3.617 3.257,-1.776 c 1.926,-1.049 2.934,-2.734 3.624,-4.391 1.249,1.962 2.286,4.06 2.806,6.667 l 0.41,2.049 2.083,0.2 c 0.42,0.043 0.831,0.053 1.221,0.034 2.654,-0.126 4.061,-1.574 4.855,-2.49 0.773,1.306 1.287,3.232 1.786,5.105 1.061,3.988 2.382,8.95 7.184,10.567 l 2.246,0.756 1.13,-2.082 c 1.446,-2.67 2.294,-5.74 3.036,-8.795 0.797,2.504 0.982,6.027 1.161,9.478 l 0.476,9.06 4.716,-7.174 c 2.116,-3.218 2.856,-7.36 3.426,-11.496 0.144,0.656 0.312,1.306 0.519,1.937 l 0.727,2.227 2.324,-0.311 c 2.549,-0.344 4.005,-1.653 4.825,-3.352 0.151,1.078 0.277,2.198 0.401,3.309 0.344,3.089 0.702,6.279 1.658,8.993 l 3,8.496 2.373,-8.691 c 0.268,-0.986 0.548,-1.959 0.826,-2.934 0.99,-3.455 2.002,-6.987 2.568,-10.97 3.489,6.391 3.445,16.708 3.402,26.757 -0.018,3.764 -0.034,7.657 0.137,11.317 l 0.181,3.875 3.628,-1.372 c 1.929,-0.729 3.429,-1.81 4.628,-3.111 0.001,0.01 -0.054,3.679 -0.054,3.679 l 3.541,-0.871 c 2.432,-0.597 4.304,-2.076 5.926,-3.655 -0.709,1.369 -1.345,2.922 -1.65,4.797 l -0.48,2.938 2.961,0.317 c 0.494,0.051 1.028,0.066 1.585,0.039 2.289,-0.11 4.885,-0.883 7.632,-1.701 1.774,-0.529 3.581,-1.066 5.386,-1.462 -0.012,0.019 -0.025,0.04 -0.037,0.059 -4.218,6.858 -9.469,15.393 -5.351,26.971 l 0.524,1.474 1.531,0.334 c 0.805,0.176 1.537,0.246 2.234,0.212 1.459,-0.07 2.508,-0.589 3.271,-1.131 -0.004,0.616 -0.018,1.248 -0.034,1.872 -0.113,4.582 -0.243,9.773 4.042,11.571 l 1.876,0.789 1.335,-1.533 c 0.522,-0.595 0.952,-1.236 1.321,-1.906 -0.236,2.715 -0.871,5.875 -1.9,9.4 l -1.529,5.227 5.148,-1.774 c 4.546,-1.566 7.512,-4.435 9.45,-7.937 -0.575,4.639 -1.864,9.228 -3.13,13.747 -1.723,6.135 -3.349,11.933 -3.169,17.603 l 0.101,3.225 3.181,-0.535 c 1.221,-0.206 2.44,-0.415 3.659,-0.626 l 2.545,2.334 c 3.263,2.99 7.162,5.127 11.258,6.91 -0.745,0.036 -1.506,0.058 -2.273,0.075 l -3.063,0.07 0.327,3.047 c 0.458,4.256 4.104,7.231 7.633,10.108 1.136,0.927 2.29,1.869 3.323,2.838 -0.069,-0.008 -0.138,-0.015 -0.206,-0.025 -1.749,-0.214 -3.56,-0.436 -5.728,-0.334 h -0.002 c -0.963,0.047 -1.906,0.152 -2.882,0.324 l -2.729,0.479 0.434,2.737 c 0.675,4.252 3.674,8.936 7.379,13.009 -2.789,-0.812 -5.65,-1.624 -8.259,-1.955 l -4.079,-0.517 0.992,3.991 c 1.368,5.508 4.381,9.266 7.73,12.297 -0.091,-0.008 -3.137,-0.237 -3.137,-0.237 l -0.16,2.868 c -0.334,6.053 3.038,10.759 6.298,15.312 1.394,1.946 2.759,3.849 3.817,5.824 -0.48,-0.56 -0.992,-1.101 -1.545,-1.613 l -2.895,-2.682 -1.595,3.61 c -1.898,4.296 -1.028,9.639 0.154,14.255 -4.548,-1.611 -9.733,-3.086 -16.127,-4.601 l -4.179,-0.991 0.757,4.228 c 0.566,3.16 3.429,5.025 6.461,6.999 0.118,0.078 0.236,0.155 0.353,0.232 -2,-0.355 -4.188,-0.529 -6.652,-0.411 -1.577,0.075 -3.232,0.273 -4.917,0.589 l -3.924,0.735 2.007,3.45 c 3.706,6.368 9.557,10.073 15.212,13.656 0.305,0.193 0.607,0.384 0.906,0.575 -1.098,0.141 -2.234,0.256 -3.355,0.37 -3.629,0.367 -7.382,0.747 -10.423,2.012 l -1.849,0.769 0.12,2 c 0.278,4.682 2.506,7.436 4.296,9.65 0.81,1.001 1.537,1.899 2.079,2.915 -1.578,-0.376 -3.356,-0.674 -5.493,-0.571 -0.826,0.039 -1.681,0.138 -2.543,0.294 l -2.452,0.443 0.141,2.487 c 0.127,2.273 0.407,4.376 0.766,6.37 -2.144,-1.296 -4.419,-2.377 -6.684,-3.374 -0.249,-0.864 -0.47,-1.792 -0.699,-2.756 -0.353,-1.479 -0.717,-3.008 -1.222,-4.451 l -1.314,-3.767 -3.11,2.502 c -6.02,4.844 -5.871,15.315 -4.319,24.307 -3.084,-3.331 -5.371,-7.027 -6.643,-11.766 l -0.876,-3.261 -3.051,1.446 c -9.376,4.444 -9.018,14.744 -6.746,24.129 -1.934,-2.385 -3.964,-4.755 -6.237,-6.889 l -2.456,-2.305 -1.834,2.825 c -2.994,4.613 -4.101,10.834 -4.129,16.865 -0.115,-0.221 -0.23,-0.443 -0.349,-0.664 -1.08,-2.055 -2.197,-4.181 -3.462,-6.172 l -4.491,-7.07 -0.694,8.347 c -0.824,9.912 -2.054,18.197 -4.772,24.657 0.21,-5.107 0.429,-10.879 -2.962,-14.476 l -1.514,-1.606 -1.921,1.086 c -4.67,2.639 -6.117,7.799 -7.392,12.35 -0.825,2.943 -1.538,5.285 -2.648,6.947 0.361,-5.755 -0.146,-13.565 -5.12,-15.757 l -2.53,-1.115 -1.161,2.508 c -0.493,1.06 -0.912,2.192 -1.26,3.4 -0.322,-1.03 -0.679,-2.063 -1.133,-3.043 l -0.794,-1.709 -2.017,0.087 c -5.623,0.269 -8.427,2.231 -9.729,4.599 -1.355,-0.459 -2.816,-0.653 -4.375,-0.579 -2.808,0.135 -5.833,1.126 -9.248,3.031 l -0.205,0.113 -0.972,-3.195 -3.339,3.885 c -2.532,2.947 -3.26,7.059 -3.772,11.189 -2.56,-5.269 -6.408,-10.203 -14.881,-9.798 -1.578,0.076 -3.301,0.344 -5.121,0.798 l -0.617,0.153 -0.492,0.406 c -2.394,1.972 -2.617,5.191 -2.59,8.247 -1.353,-1.763 -3.26,-3.431 -6.451,-3.657 l -0.92,-0.064 -0.78,0.492 c -4.762,3.004 -5.432,8.929 -5.331,15.265 -3.479,-3.139 -6.653,-6.751 -9.48,-10.788 l -2.65,-3.786 -2.151,4.09 c -1.419,2.702 -1.269,5.48 -0.688,8.12 -4.207,-5.163 -7.787,-11.311 -10.693,-18.372 l -1.103,-2.68 -2.648,1.179 c -4.141,1.845 -6,5.496 -7.638,8.717 -0.921,1.81 -1.798,3.535 -2.983,4.757 l -6.193,0.296 c 0.069,-0.172 0.138,-0.344 0.21,-0.517 1.253,-3.088 2.675,-6.587 1.678,-12.155 l -0.784,-4.381 -3.623,2.583 c -3.817,2.723 -10.113,5.586 -15.575,5.848 -2.113,0.101 -3.96,-0.186 -5.52,-0.857 2.537,-2.629 5.121,-5.742 5.401,-10.983 l 0.123,-2.302 -2.233,-0.576 c -3.961,-1.02 -8.513,-1.287 -12.714,-1.278 0.293,-0.833 0.471,-1.819 0.398,-2.998 l -0.053,-0.844 -0.508,-0.676 c -4.007,-5.321 -10.878,-5.7 -16.417,-5.435 -2.37,0.113 -4.848,0.373 -7.243,0.625 -2.344,0.247 -4.771,0.502 -7.034,0.61 -4.906,0.235 -8.29,-0.292 -10.598,-1.754 0.359,0.056 0.718,0.081 1.08,0.064 l 2.814,-0.134 -0.41,-8.661 -2.037,-0.503 c -4.591,-1.136 -9.895,-2.618 -14.94,-4.781 1.513,-0.994 2.565,-2.677 3.01,-4.865 0.82,-4.027 -0.476,-9.165 -2.888,-11.453 l -0.939,-0.889 -1.286,0.132 c -0.986,0.1 -1.946,0.173 -2.854,0.216 -9.089,0.435 -13.025,-2.099 -14.867,-4.995 4.862,-0.466 8.13,-1.886 10.205,-4.412 1.96,-2.387 2.652,-5.628 2.056,-9.633 l -0.379,-2.535 -2.559,0.139 c -2.302,0.124 -4.572,0.599 -6.768,1.059 -0.771,0.162 -1.526,0.32 -2.253,0.455 3.828,-2.396 6.059,-6.299 5.89,-9.823 -0.112,-2.352 -1.255,-4.383 -3.215,-5.716 -1.021,-0.695 -2.232,-1.185 -3.621,-1.467 3.273,-2.277 6.745,-5.795 3.735,-11.689 l -0.981,-1.923 -2.112,0.45 c -1.219,0.258 -2.432,0.418 -3.606,0.475 -8.547,0.408 -14.968,-4.647 -21.09,-9.831 6.653,-0.557 14.927,-2.869 19.57,-7.051 l 3.197,-2.877 -3.916,-1.78 c -1.953,-0.888 -4.06,-1.563 -6.218,-2.138 l 0.05,-1.401 c 0.393,-10.604 -6.551,-13.714 -12.129,-16.214 -2.099,-0.942 -4.026,-1.805 -5.533,-2.956 1.337,-0.019 2.829,0.155 4.4,0.338 2.087,0.243 4.243,0.496 6.555,0.385 1.246,-0.059 2.396,-0.217 3.515,-0.484 l 2.652,-0.631 -0.544,-2.672 c -0.212,-1.043 -0.566,-1.927 -0.984,-2.697 0.897,0.291 1.755,0.581 2.561,0.91 l 2.837,1.158 0.916,-2.926 c 0.879,-2.806 -0.059,-4.932 -1.64,-6.597 l 0.354,-0.036 0.699,-1.357 c 4.454,-8.648 -0.921,-13.268 -4.844,-16.64 -1.942,-1.668 -3.8,-3.266 -4.746,-5.234 0.86,-0.3 1.652,-0.41 2.486,-0.45 1.148,-0.054 2.494,0.035 4.052,0.139 0.655,0.044 1.348,0.089 2.087,0.13 l 2.168,0.116 0.665,-2.065 c 2.418,-7.5 -0.846,-13.6 -4.002,-19.498 -1.626,-3.041 -3.293,-6.156 -4.218,-9.53 0.412,0.128 0.853,0.194 1.327,0.17 l 0.096,-0.004 0.465,-0.051 0.3,-0.107 c 2.691,-0.953 3.533,-3.196 3.678,-5.647 0.771,0.646 1.69,1.183 2.814,1.53 l 2.956,0.91 0.63,-3.029 c 1.144,-5.496 0.667,-12.304 0.154,-18.946 1.107,1.62 2.413,3.089 4.063,4.273 l 3.877,2.777 0.561,-4.736 c 0.593,-5.017 -0.172,-10.642 -0.983,-16.595 -0.755,-5.565 -1.529,-11.25 -1.039,-16.101 2.013,4.768 5.028,8.945 10.229,10.926 l 2.976,1.135 0.761,-3.093 c 1.223,-4.957 1.357,-10.791 1.487,-16.433 0.139,-6.027 0.279,-12.187 1.79,-16.801 0.557,9.185 1.849,17.944 9.088,21.194 l 2.602,1.169 1.135,-2.618 c 1.145,-2.64 1.52,-5.818 1.598,-8.804 1.175,0.925 2.421,1.66 3.861,1.657 l 2.008,-0.004 0.65,-1.9 c 1.09,-3.183 1.565,-7.015 1.476,-12.117 0.258,0.165 0.524,0.342 0.808,0.532 1.811,1.212 4.067,2.722 7.765,2.545 l 1.373,-0.064 0.849,-1.125 c 1.967,-2.783 2.604,-6.415 3.01,-10.106 0.416,0.701 0.78,1.5 1.096,2.398 l 0.721,2.061 2.176,-0.186 c 2.58,-0.221 4.05,-1.535 4.929,-3.097 0.303,0.543 0.638,1.075 1.023,1.585 l 2.16,2.858 2.268,-2.77 c 3.053,-3.732 3.819,-9.02 4.562,-14.133 0.068,-0.471 0.135,-0.936 0.204,-1.397 1.6,2.141 3.286,4.148 4.94,6.118 2.3,2.735 4.472,5.319 6.404,8.206 l 3.237,4.84 1.785,-5.542 c 0.992,-3.085 1.838,-6.32 2.655,-9.45 1.8,-6.887 3.519,-13.469 6.659,-18.564"
                         style="fill:url(#linearGradient4078);fill-rule:evenodd;stroke:none"
                         id="path42"
                         inkscape:connector-curvature="0" />
                    </g>
                  </g>
                </g>
              </g>
            </g>
          </g>
        </g>
        <g
           id="g56"
           transform="translate(-162.1256,19.1998)">
          <g
             id="g58" />
          <g
             id="g86">
            <g
               clip-path="url(#clipPath62-4)"
               id="g84"
               style="opacity:0.5">
              <g
                 id="g82">
                <g
                   id="g80">
                  <g
                     id="g78">
                    <g
                       id="g76">
                      <path
                         d="m 531.574,611.525 c -0.374,1.308 -0.7,2.711 -1.035,4.149 -1.207,5.18 -2.455,10.537 -6.511,13.869 l -1.658,1.361 -1.906,-0.986 c -3.445,-1.782 -4.884,-6.515 -5.213,-11.505 -1.194,2.291 -2.428,4.551 -3.732,6.252 l -1.007,1.313 -1.654,-0.039 c -2.577,-0.059 -4.29,-1.126 -5.493,-2.341 -0.902,1.226 -1.837,2.491 -3.065,3.638 l -1.144,1.068 -1.549,-0.226 c -3.171,-0.464 -4.815,-2.465 -5.883,-4.242 -0.794,2.774 -2.259,5.418 -4.992,7.065 l -2.163,1.304 -1.801,-1.77 c -2.772,-2.724 -4.247,-6.321 -5.672,-9.798 -1.013,-2.474 -1.945,-4.745 -3.212,-6.463 -0.169,1.216 -0.285,2.514 -0.401,3.792 -0.473,5.239 -0.962,10.658 -4.852,13.773 l -0.86,0.69 -1.103,0.024 c -6.947,0.157 -13.535,0.846 -19.347,1.453 -5.583,0.584 -10.858,1.136 -15.58,1.136 -8.136,0 -16.786,-1.482 -22.536,-10.576 0.06,1.466 0.04,2.906 -0.199,4.225 l -0.764,4.222 -3.86,-1.87 c -2.283,-1.105 -3.54,-2.997 -4.427,-4.872 -1.336,2.335 -2.416,4.816 -2.875,7.854 l -0.361,2.392 -2.394,0.346 c -0.483,0.07 -0.957,0.106 -1.408,0.106 -3.074,0 -4.779,-1.596 -5.747,-2.609 -0.82,1.551 -1.306,3.804 -1.779,5.996 -1.006,4.665 -2.258,10.469 -7.716,12.6 l -2.551,0.998 -1.419,-2.342 c -1.82,-3.004 -2.969,-6.503 -3.994,-9.991 -0.784,2.935 -0.801,7.015 -0.817,11.012 l -0.049,10.489 -5.844,-8.025 c -2.621,-3.599 -3.705,-8.343 -4.592,-13.09 -0.131,0.767 -0.287,1.528 -0.491,2.267 l -0.719,2.612 -2.7,-0.23 c -2.963,-0.255 -4.718,-1.689 -5.759,-3.605 -0.116,1.253 -0.198,2.554 -0.28,3.844 -0.227,3.586 -0.462,7.292 -1.418,10.478 l -2.997,9.98 -3.22,-9.908 c -0.365,-1.123 -0.742,-2.233 -1.118,-3.343 -1.333,-3.937 -2.697,-7.96 -3.57,-12.53 -3.678,7.576 -3.056,19.489 -2.451,31.093 0.227,4.347 0.46,8.842 0.465,13.081 l 0.005,4.485 -4.266,-1.384 c -2.267,-0.736 -4.06,-1.902 -5.517,-3.338 0,0.013 0.266,4.245 0.266,4.245 l -4.139,-0.809 c -2.841,-0.555 -5.086,-2.16 -7.046,-3.896 0.895,1.544 1.714,3.301 2.171,5.451 l 0.715,3.367 -3.401,0.528 c -0.568,0.088 -1.184,0.133 -1.829,0.133 -2.65,0 -5.691,-0.75 -8.91,-1.543 -2.077,-0.511 -4.194,-1.033 -6.302,-1.392 0.016,0.023 0.031,0.045 0.046,0.067 5.251,7.689 11.787,17.257 7.671,30.857 l -0.525,1.732 -1.748,0.47 c -0.921,0.247 -1.762,0.368 -2.57,0.368 -1.689,0 -2.929,-0.541 -3.842,-1.124 0.039,0.709 0.092,1.439 0.145,2.16 0.383,5.285 0.819,11.273 -4.031,13.588 l -2.122,1.014 -1.629,-1.697 c -0.633,-0.658 -1.168,-1.374 -1.631,-2.129 0.424,3.123 1.332,6.739 2.716,10.752 l 2.053,5.953 -6.044,-1.764 c -5.336,-1.557 -8.921,-4.708 -11.353,-8.645 0.92,5.326 2.661,10.555 4.375,15.704 2.328,6.993 4.527,13.598 4.633,20.159 l 0.061,3.73 -3.704,-0.444 c -1.423,-0.169 -2.842,-0.343 -4.26,-0.519 l -2.811,2.836 c -3.603,3.634 -7.989,6.317 -12.622,8.603 0.863,0 1.743,-0.017 2.628,-0.039 l 3.543,-0.089 -0.21,3.537 c -0.293,4.942 -4.342,8.579 -8.259,12.098 -1.261,1.133 -2.541,2.283 -3.681,3.461 0.08,-0.014 0.158,-0.027 0.238,-0.04 2.009,-0.344 4.086,-0.701 6.596,-0.702 h 0.001 c 1.116,0 2.212,0.07 3.349,0.214 l 3.178,0.403 -0.35,3.185 c -0.545,4.95 -3.752,10.524 -7.805,15.433 3.176,-1.091 6.437,-2.187 9.432,-2.713 l 4.684,-0.823 -0.926,4.664 c -1.277,6.438 -4.549,10.946 -8.25,14.631 0.105,-0.015 3.611,-0.446 3.611,-0.446 l 0.342,3.302 c 0.72,6.974 -2.914,12.597 -6.429,18.034 -1.503,2.325 -2.974,4.598 -4.089,6.938 0.525,-0.673 1.086,-1.327 1.697,-1.95 l 3.196,-3.256 2.041,4.081 c 2.43,4.858 1.72,11.077 0.611,16.474 5.164,-2.111 11.071,-4.101 18.372,-6.205 l 4.772,-1.375 -0.64,4.925 c -0.479,3.681 -3.684,5.993 -7.076,8.442 -0.133,0.095 -0.264,0.191 -0.397,0.286 2.294,-0.52 4.809,-0.842 7.661,-0.842 1.827,0 3.749,0.138 5.713,0.409 l 4.572,0.632 -2.128,4.096 c -3.929,7.56 -10.48,12.163 -16.816,16.614 -0.341,0.24 -0.679,0.477 -1.014,0.714 1.276,0.102 2.594,0.172 3.896,0.242 4.212,0.224 8.568,0.455 12.149,1.748 l 2.179,0.787 -0.027,2.316 c -0.066,5.423 -2.486,8.728 -4.431,11.383 -0.879,1.201 -1.669,2.279 -2.241,3.483 1.803,-0.522 3.84,-0.965 6.314,-0.965 0.955,0 1.949,0.068 2.954,0.2 l 2.856,0.376 -0.024,2.881 c -0.023,2.632 -0.228,5.077 -0.535,7.4 2.405,-1.615 4.974,-2.989 7.536,-4.266 0.239,-1.013 0.442,-2.095 0.654,-3.221 0.325,-1.728 0.661,-3.515 1.164,-5.21 l 1.312,-4.423 3.729,2.718 c 7.221,5.263 7.627,17.366 6.331,27.837 3.378,-4.018 5.816,-8.413 7.023,-13.957 l 0.831,-3.815 3.604,1.502 c 11.076,4.615 11.231,16.532 9.125,27.497 2.103,-2.861 4.316,-5.711 6.824,-8.301 l 2.709,-2.798 2.275,3.162 c 3.713,5.162 5.335,12.288 5.698,19.251 0.123,-0.261 0.245,-0.523 0.368,-0.787 1.134,-2.433 2.307,-4.949 3.659,-7.319 l 4.796,-8.414 1.262,9.602 c 1.499,11.404 3.377,20.905 6.874,28.218 -0.524,-5.888 -1.097,-12.543 2.622,-16.885 l 1.66,-1.938 2.279,1.148 c 5.539,2.791 7.494,8.67 9.22,13.857 1.116,3.353 2.067,6.018 3.44,7.876 -0.732,-6.627 -0.577,-15.675 5.046,-18.481 l 2.861,-1.428 1.48,2.833 c 0.626,1.198 1.173,2.481 1.641,3.858 0.315,-1.208 0.67,-2.42 1.142,-3.578 l 0.822,-2.019 2.335,-0.01 c 6.509,0 9.857,2.112 11.491,4.777 1.539,-0.607 3.216,-0.913 5.021,-0.913 3.251,0 6.8,0.978 10.85,2.99 l 0.242,0.121 0.947,-3.745 4.07,4.303 c 3.088,3.264 4.155,7.973 4.976,12.716 2.664,-6.227 6.837,-12.138 16.647,-12.138 1.826,0 3.831,0.214 5.958,0.637 l 0.723,0.144 0.591,0.441 c 2.873,2.146 3.308,5.851 3.447,9.383 1.464,-2.111 3.575,-4.144 7.248,-4.58 l 1.059,-0.125 0.928,0.525 c 5.666,3.208 6.767,10.014 7,17.338 3.845,-3.818 7.312,-8.165 10.354,-12.985 l 2.852,-4.518 2.709,4.605 c 1.79,3.042 1.77,6.258 1.245,9.341 4.573,-6.197 8.369,-13.496 11.336,-21.811 l 1.126,-3.157 3.124,1.216 c 4.885,1.902 7.232,6.016 9.302,9.646 1.164,2.041 2.274,3.985 3.709,5.331 h 7.17 c -0.09,-0.195 -0.18,-0.39 -0.27,-0.587 -1.619,-3.496 -3.454,-7.459 -2.611,-13.946 l 0.664,-5.105 4.328,2.786 c 4.558,2.933 11.988,5.893 18.312,5.893 2.446,0 4.563,-0.433 6.328,-1.294 -3.076,-2.896 -6.233,-6.349 -6.845,-12.388 l -0.269,-2.653 2.548,-0.787 c 4.519,-1.397 9.76,-1.957 14.615,-2.179 -0.386,-0.945 -0.646,-2.075 -0.626,-3.441 l 0.015,-0.978 0.548,-0.808 c 4.335,-6.367 12.25,-7.184 18.663,-7.184 2.745,0 5.62,0.164 8.4,0.323 2.723,0.155 5.539,0.315 8.159,0.315 5.68,0 9.56,-0.794 12.144,-2.609 -0.412,0.082 -0.825,0.132 -1.244,0.132 h -3.257 l -0.004,-10.025 2.324,-0.695 c 5.24,-1.565 11.285,-3.57 16.992,-6.347 -1.803,-1.064 -3.111,-2.951 -3.746,-5.452 -1.168,-4.608 0.045,-10.614 2.705,-13.389 l 1.034,-1.078 1.494,0.08 c 1.143,0.062 2.256,0.093 3.308,0.093 10.522,0 14.928,-3.144 16.897,-6.59 -5.643,-0.27 -9.496,-1.73 -12.032,-4.533 -2.396,-2.65 -3.374,-6.354 -2.906,-11.013 l 0.297,-2.949 2.964,0.019 c 2.666,0.017 5.313,0.44 7.875,0.85 0.9,0.144 1.781,0.285 2.628,0.402 -4.554,-2.558 -7.346,-6.942 -7.346,-11.022 0,-2.724 1.208,-5.131 3.399,-6.78 1.14,-0.858 2.51,-1.491 4.101,-1.895 -3.907,-2.449 -8.11,-6.32 -4.961,-13.293 l 1.028,-2.276 2.464,0.402 c 1.422,0.232 2.832,0.349 4.193,0.349 9.894,0 17.031,-6.193 23.816,-12.518 -7.715,-0.275 -17.399,-2.49 -22.994,-7.064 l -3.851,-3.147 4.424,-2.272 c 2.207,-1.133 4.605,-2.029 7.065,-2.811 l -0.137,-1.615 c -1.037,-12.226 6.811,-16.204 13.115,-19.399 2.372,-1.202 4.55,-2.306 6.229,-3.719 -1.546,0.05 -3.26,0.333 -5.064,0.632 -2.397,0.397 -4.875,0.808 -7.551,0.808 -1.442,0 -2.779,-0.12 -4.086,-0.366 l -3.098,-0.582 0.481,-3.116 c 0.188,-1.215 0.546,-2.258 0.989,-3.169 -1.023,0.383 -1.996,0.767 -2.91,1.191 l -3.213,1.495 -1.219,-3.328 c -1.169,-3.193 -0.205,-5.702 1.531,-7.712 l -0.412,-0.022 -0.882,-1.528 c -5.622,-9.744 0.331,-15.375 4.677,-19.487 2.149,-2.035 4.209,-3.982 5.191,-6.308 -1.009,-0.3 -1.929,-0.382 -2.895,-0.382 -1.329,0 -2.879,0.178 -4.673,0.384 -0.754,0.086 -1.551,0.178 -2.403,0.265 l -2.497,0.255 -0.883,-2.349 c -3.207,-8.529 0.225,-15.755 3.546,-22.744 1.711,-3.601 3.463,-7.289 4.346,-11.239 -0.469,0.172 -0.975,0.271 -1.524,0.271 h -0.11 l -0.54,-0.034 -0.353,-0.107 c -3.161,-0.952 -4.258,-3.497 -4.56,-6.32 -0.855,0.789 -1.886,1.461 -3.166,1.924 l -3.363,1.213 -0.895,-3.462 c -1.625,-6.287 -1.452,-14.176 -1.224,-21.876 -1.19,1.932 -2.617,3.702 -4.458,5.159 l -4.325,3.423 -0.908,-5.44 c -0.963,-5.762 -0.389,-12.3 0.217,-19.222 0.566,-6.469 1.145,-13.077 0.312,-18.654 -2.063,5.616 -5.314,10.608 -11.212,13.184 l -3.374,1.473 -1.051,-3.528 c -1.685,-5.658 -2.162,-12.389 -2.624,-18.897 -0.493,-6.956 -0.996,-14.063 -2.995,-19.308 -0.137,10.64 -1.145,20.827 -9.326,24.98 l -2.942,1.495 -1.456,-2.962 c -1.467,-2.986 -2.077,-6.635 -2.332,-10.08 -1.304,1.133 -2.706,2.051 -4.368,2.128 l -2.318,0.104 -0.857,-2.157 c -1.434,-3.616 -2.194,-8.016 -2.374,-13.914 -0.289,0.204 -0.587,0.425 -0.903,0.658 -2.025,1.502 -4.548,3.37 -8.829,3.37 h -1.589 l -1.042,-1.253 c -2.426,-3.104 -3.363,-7.265 -4.035,-11.506 -0.442,0.834 -0.818,1.777 -1.133,2.831 l -0.721,2.42 -2.522,-0.094 c -2.993,-0.112 -4.764,-1.55 -5.864,-3.306 -0.322,0.644 -0.678,1.277 -1.095,1.888 l -2.336,3.419 -2.773,-3.075 c -3.732,-4.139 -4.91,-10.205 -6.049,-16.072 -0.106,-0.538 -0.209,-1.072 -0.314,-1.6 -1.729,2.562 -3.565,4.972 -5.368,7.338 -2.505,3.286 -4.871,6.392 -6.942,9.833 l -3.474,5.769 -2.366,-6.304 c -1.317,-3.509 -2.473,-7.199 -3.59,-10.768 -2.458,-7.856 -4.808,-15.364 -8.717,-21.076"
                         style="fill:url(#linearGradient4080);fill-rule:evenodd;stroke:none"
                         id="path74"
                         inkscape:connector-curvature="0" />
                    </g>
                  </g>
                </g>
              </g>
            </g>
          </g>
        </g>
      </g>
      <g
         transform="matrix(0.35277777,0,0,-0.35277777,-23.55903,373.49566)"
         id="g4076">
        <g
           transform="translate(85.1776,855.7477)"
           id="g4038">
          <path
             inkscape:connector-curvature="0"
             id="path4036"
             style="fill:#8bc53f;fill-opacity:1;fill-rule:evenodd;stroke:none"
             d="M 0,0 C 4.774,0.411 13.841,-4.236 20.626,-5.428 17.391,10.877 -0.086,12.941 -4.342,28.226 3.072,23.699 5.649,14.334 16.284,13.027 17.61,25.857 0.495,34.482 4.342,49.938 c 3.406,-3.47 5.28,-8.472 8.685,-11.942 2.927,5.852 0.081,15.257 -1.086,20.627 7.322,-3.535 15.456,-6.257 23.884,-8.685 -0.669,5.137 -12.856,8.12 -14.113,16.284 6.249,-2.798 12.299,-5.794 22.798,-4.343 -4.949,9.526 -14.836,14.115 -22.798,20.627 6.232,2.452 16.416,0.953 22.798,3.257 -0.107,8.939 -7.801,10.293 -7.599,19.54 4.132,-0.932 7.193,-2.939 13.027,-2.171 -0.052,6.1 -1.147,11.157 -2.171,16.284 3.721,-4.963 9.363,-8.006 15.198,-10.856 0.91,-3.069 1.261,-6.701 2.171,-9.77 8.05,5.867 5.606,24.367 3.257,34.739 6.769,-5.897 12.934,-12.396 15.198,-22.798 14.071,5.863 6.477,27.273 3.257,39.082 5.892,-6.412 10.232,-14.375 16.284,-20.626 5.02,6.979 6.2,19.652 4.343,30.396 4.806,-5.326 7.177,-13.086 10.856,-19.54 1.976,15.031 4.826,29.188 13.027,37.996 2.417,-6.029 -2.765,-19.205 2.171,-24.969 9.626,4.849 5.911,23.038 18.455,24.969 -1.305,-5.689 -3.022,-19.12 2.172,-21.712 1.863,3.565 2.873,7.983 3.257,13.027 3.584,-2.567 3.646,-8.657 5.427,-13.027 5.453,-0.025 9.504,1.353 9.771,6.513 4.479,-4.228 10.722,-2.763 16.284,0 v 7.599 c 1.717,-2.263 3.539,-4.422 4.342,-7.599 4.574,4.835 3.851,14.967 6.514,21.713 4.326,-9.788 5.18,-23.046 22.798,-19.541 3.522,2.63 1.122,11.18 3.257,15.198 3.952,-2.562 3.947,-9.08 9.77,-9.771 5.777,3.27 5.354,12.74 5.428,21.713 6.417,-5.163 11.804,-11.357 16.285,-18.456 3.156,5.364 -1.498,12.226 -1.086,18.456 8.708,-8.3 15.068,-18.947 19.541,-31.483 6.772,2.637 7.582,11.235 13.027,15.199 h 13.027 c -1.455,-5.784 -5.423,-9.052 -4.342,-17.37 7.499,4.826 23.296,10.486 31.482,2.171 -3.632,-3.606 -8.02,-6.455 -8.685,-13.027 5.529,-1.709 12.343,-2.131 19.541,-2.171 -0.964,-2.292 -3.304,-3.209 -3.256,-6.514 9.58,-14.075 43.603,4.583 51.022,-14.113 -1.283,-2.924 -5.66,0.005 -7.599,0 v -4.342 c 11.145,-3.33 21.543,-7.406 29.312,-14.113 -1.577,-1.504 -7.286,2.069 -10.856,2.171 -4.617,-1.477 -3.885,-11.193 -1.086,-14.113 13.389,0.724 22.874,-2.457 24.969,-13.027 -9.892,0.484 -17.336,-1.481 -16.284,-11.941 8.644,0.054 18.613,5.074 21.712,-3.257 -15.885,2.532 -23.966,-19.329 -1.086,-15.199 -3.057,-5.438 -16.013,-6.188 -11.941,-15.198 17.92,2.921 27.778,-11.184 37.996,-19.541 -8.325,2.354 -23.605,0.125 -30.397,-5.428 8.129,-4.175 19.586,-5.021 27.14,-9.771 -2.065,0.501 -13.69,0.762 -18.455,2.172 -1.443,-17.003 17.048,-14.073 21.712,-24.969 -6.121,-3.197 -13.662,1.514 -21.712,0 0.725,-4.702 5.024,-5.832 5.428,-10.856 -3.237,2.552 -7.99,3.589 -11.942,5.428 -2.065,-5.64 7.579,-8.111 10.857,-11.942 -3.591,-3.519 -6.974,2.382 -10.857,2.171 -7.418,-12.854 9.784,-15.016 10.857,-26.054 -4.652,-2.579 -7.888,-1.724 -14.114,-1.086 -4.91,-13.058 8.733,-22.941 8.685,-37.996 -0.382,-5.204 -3.251,2.318 -5.428,2.171 -4.172,-1.256 -1.346,-9.51 -2.171,-14.113 -2.934,2.855 -3.345,8.236 -7.599,9.771 -2.527,-9.777 -0.368,-24.24 -1.086,-35.825 -3.111,5.936 -4.72,13.373 -9.771,17.37 -2.365,-14.166 5.488,-36.045 -3.257,-47.767 -1.855,9 -4.385,17.326 -11.941,20.627 -4.484,-15.057 0.071,-39.153 -11.941,-46.681 -0.207,12.82 1.041,27.095 -7.6,31.482 -1.67,-3.397 -2.107,-8.024 -2.171,-13.027 -0.493,-4.694 -4.927,3.136 -7.6,3.257 -1.849,-4.664 -2.275,-10.751 -2.17,-17.37 -5.709,0.442 -6.841,5.463 -13.028,5.428 -3.014,-3.86 -3.321,-10.429 -4.342,-16.284 -3.323,1.743 -5.352,4.781 -6.513,8.685 -4.535,-0.17 -4.076,-5.333 -5.429,-8.685 -1.9,2.442 -2.58,6.105 -4.342,8.685 -4.975,-5.519 -4.75,-16.239 -7.599,-23.884 -4.456,8.934 -11.253,15.525 -16.285,23.884 -4.839,-12.893 -7.372,-28.091 -16.284,-36.91 -3.897,6.233 -3.121,17.142 -8.684,21.712 -4.545,-2.352 -4.036,-15.478 -2.172,-20.627 -3.719,1.003 -7.236,11.565 -10.856,16.284 -3.183,-0.074 -4.031,-2.482 -5.427,-4.343 -2.059,1.923 -3.37,4.592 -5.429,6.514 -4.736,-0.691 -3.665,-7.191 -8.684,-7.599 -0.209,4.856 -1.182,8.951 -4.343,10.855 -5.476,-5.379 -5.417,-16.293 -13.027,-19.54 -2.833,5.852 -0.605,16.764 -5.428,20.626 -30.8,0.695 -51.626,11.334 -58.623,-16.284 -4.263,1.527 -1.284,10.295 -2.171,15.198 -3.169,-1.535 -3.445,-5.962 -5.428,-8.684 -2.706,4.17 -5.612,8.139 -6.513,14.113 -5.329,0.77 -4.135,-4.976 -8.685,-2.172 -4.001,5.046 -2.18,15.914 -8.685,18.456 -2.594,-4.282 -3.752,-9.999 -5.428,-15.199 -5.49,2.472 -5.392,10.531 -5.428,18.456 -4.117,-5.654 -3.956,-15.585 -6.514,-22.798 -3.761,2.028 -3.093,8.487 -4.342,13.028 -4.999,-0.43 -4.169,-6.688 -4.343,-11.943 -6.795,3.699 -4.09,16.899 -6.513,24.97 -2.308,-7.102 -5.076,-13.742 -5.428,-22.798 -12.419,9.083 -7.621,32.892 -7.6,52.109 -5.737,-1.862 -7.713,-7.485 -9.77,-13.027 -2.829,2.901 -0.217,9.571 0,13.027 -6.233,-1.218 -9.766,-10.206 -15.198,-8.685 0.926,5.95 5.308,8.442 6.513,14.113 -5.166,0.803 -14.298,-3.779 -22.798,-3.257 5.182,9.003 15.453,18.468 10.856,33.654 -4.946,1.328 -4.258,-2.978 -8.684,-2.172 -0.985,5.529 2.238,15.266 -2.172,17.37 -2.837,-2.953 -3.386,-8.193 -5.427,-11.941 -4.192,6.236 -1.095,17.562 1.085,23.883 -10.083,-2.943 -13.147,-12.906 -14.113,-24.969 -7.403,20.586 7.338,39.195 7.599,55.366 -8.726,-1.045 -17.327,-2.213 -26.054,-3.257 4.687,2.912 10.777,4.422 16.284,6.514 -5.404,5.451 -13.005,8.707 -20.627,11.941 2.824,2.244 7.831,2.302 13.028,2.172 -0.407,6.843 -12.228,11.646 -15.198,19.541 6.126,0.335 9.654,-1.926 16.283,-1.086 C 14.408,-14.531 6.468,-5.121 0,0" />
        </g>
        <g
           transform="translate(-162.1256,19.1998)"
           id="g4056">
          <g
             id="g4040" />
          <g
             id="g4054">
            <g
               style="opacity:0.30000299"
               id="g4052"
               clip-path="url(#clipPath30)">
              <g
                 id="g4050">
                <g
                   id="g4048">
                  <g
                     id="g4046">
                    <g
                       id="g4044">
                      <path
                         inkscape:connector-curvature="0"
                         id="path4042"
                         style="fill:url(#linearGradient4082);fill-rule:evenodd;stroke:none"
                         d="m 414.975,641.841 c 0.378,1.112 0.718,2.312 1.067,3.54 1.256,4.425 2.554,9.001 6.197,11.711 l 1.488,1.107 1.605,-0.93 c 2.903,-1.682 3.95,-5.83 4.028,-10.154 1.127,1.931 2.286,3.83 3.483,5.246 l 0.923,1.093 1.427,-0.1 c 2.224,-0.159 3.66,-1.151 4.649,-2.25 0.829,1.021 1.689,2.076 2.797,3.015 l 1.032,0.874 1.329,-0.259 c 2.72,-0.531 4.058,-2.328 4.907,-3.906 0.801,2.364 2.175,4.586 4.603,5.898 l 1.923,1.037 1.484,-1.605 c 2.281,-2.468 3.406,-5.635 4.494,-8.697 0.774,-2.179 1.484,-4.18 2.507,-5.717 0.196,1.045 0.35,2.161 0.503,3.262 0.625,4.504 1.27,9.166 4.76,11.696 l 0.772,0.559 0.952,-0.025 c 6.008,-0.151 11.726,0.172 16.772,0.458 4.847,0.273 9.426,0.532 13.506,0.336 7.028,-0.335 14.438,-1.972 19.03,-10.066 0.01,1.269 0.086,2.513 0.346,3.641 l 0.834,3.617 3.257,-1.776 c 1.926,-1.049 2.934,-2.734 3.624,-4.391 1.249,1.962 2.286,4.06 2.806,6.667 l 0.41,2.049 2.083,0.2 c 0.42,0.043 0.831,0.053 1.221,0.034 2.654,-0.126 4.061,-1.574 4.855,-2.49 0.773,1.306 1.287,3.232 1.786,5.105 1.061,3.988 2.382,8.95 7.184,10.567 l 2.246,0.756 1.13,-2.082 c 1.446,-2.67 2.294,-5.74 3.036,-8.795 0.797,2.504 0.982,6.027 1.161,9.478 l 0.476,9.06 4.716,-7.174 c 2.116,-3.218 2.856,-7.36 3.426,-11.496 0.144,0.656 0.312,1.306 0.519,1.937 l 0.727,2.227 2.324,-0.311 c 2.549,-0.344 4.005,-1.653 4.825,-3.352 0.151,1.078 0.277,2.198 0.401,3.309 0.344,3.089 0.702,6.279 1.658,8.993 l 3,8.496 2.373,-8.691 c 0.268,-0.986 0.548,-1.959 0.826,-2.934 0.99,-3.455 2.002,-6.987 2.568,-10.97 3.489,6.391 3.445,16.708 3.402,26.757 -0.018,3.764 -0.034,7.657 0.137,11.317 l 0.181,3.875 3.628,-1.372 c 1.929,-0.729 3.429,-1.81 4.628,-3.111 0.001,0.01 -0.054,3.679 -0.054,3.679 l 3.541,-0.871 c 2.432,-0.597 4.304,-2.076 5.926,-3.655 -0.709,1.369 -1.345,2.922 -1.65,4.797 l -0.48,2.938 2.961,0.317 c 0.494,0.051 1.028,0.066 1.585,0.039 2.289,-0.11 4.885,-0.883 7.632,-1.701 1.774,-0.529 3.581,-1.066 5.386,-1.462 -0.012,0.019 -0.025,0.04 -0.037,0.059 -4.218,6.858 -9.469,15.393 -5.351,26.971 l 0.524,1.474 1.531,0.334 c 0.805,0.176 1.537,0.246 2.234,0.212 1.459,-0.07 2.508,-0.589 3.271,-1.131 -0.004,0.616 -0.018,1.248 -0.034,1.872 -0.113,4.582 -0.243,9.773 4.042,11.571 l 1.876,0.789 1.335,-1.533 c 0.522,-0.595 0.952,-1.236 1.321,-1.906 -0.236,2.715 -0.871,5.875 -1.9,9.4 l -1.529,5.227 5.148,-1.774 c 4.546,-1.566 7.512,-4.435 9.45,-7.937 -0.575,4.639 -1.864,9.228 -3.13,13.747 -1.723,6.135 -3.349,11.933 -3.169,17.603 l 0.101,3.225 3.181,-0.535 c 1.221,-0.206 2.44,-0.415 3.659,-0.626 l 2.545,2.334 c 3.263,2.99 7.162,5.127 11.258,6.91 -0.745,0.036 -1.506,0.058 -2.273,0.075 l -3.063,0.07 0.327,3.047 c 0.458,4.256 4.104,7.231 7.633,10.108 1.136,0.927 2.29,1.869 3.323,2.838 -0.069,-0.008 -0.138,-0.015 -0.206,-0.025 -1.749,-0.214 -3.56,-0.436 -5.728,-0.334 h -0.002 c -0.963,0.047 -1.906,0.152 -2.882,0.324 l -2.729,0.479 0.434,2.737 c 0.675,4.252 3.674,8.936 7.379,13.009 -2.789,-0.812 -5.65,-1.624 -8.259,-1.955 l -4.079,-0.517 0.992,3.991 c 1.368,5.508 4.381,9.266 7.73,12.297 -0.091,-0.008 -3.137,-0.237 -3.137,-0.237 l -0.16,2.868 c -0.334,6.053 3.038,10.759 6.298,15.312 1.394,1.946 2.759,3.849 3.817,5.824 -0.48,-0.56 -0.992,-1.101 -1.545,-1.613 l -2.895,-2.682 -1.595,3.61 c -1.898,4.296 -1.028,9.639 0.154,14.255 -4.548,-1.611 -9.733,-3.086 -16.127,-4.601 l -4.179,-0.991 0.757,4.228 c 0.566,3.16 3.429,5.025 6.461,6.999 0.118,0.078 0.236,0.155 0.353,0.232 -2,-0.355 -4.188,-0.529 -6.652,-0.411 -1.577,0.075 -3.232,0.273 -4.917,0.589 l -3.924,0.735 2.007,3.45 c 3.706,6.368 9.557,10.073 15.212,13.656 0.305,0.193 0.607,0.384 0.906,0.575 -1.098,0.141 -2.234,0.256 -3.355,0.37 -3.629,0.367 -7.382,0.747 -10.423,2.012 l -1.849,0.769 0.12,2 c 0.278,4.682 2.506,7.436 4.296,9.65 0.81,1.001 1.537,1.899 2.079,2.915 -1.578,-0.376 -3.356,-0.674 -5.493,-0.571 -0.826,0.039 -1.681,0.138 -2.543,0.294 l -2.452,0.443 0.141,2.487 c 0.127,2.273 0.407,4.376 0.766,6.37 -2.144,-1.296 -4.419,-2.377 -6.684,-3.374 -0.249,-0.864 -0.47,-1.792 -0.699,-2.756 -0.353,-1.479 -0.717,-3.008 -1.222,-4.451 l -1.314,-3.767 -3.11,2.502 c -6.02,4.844 -5.871,15.315 -4.319,24.307 -3.084,-3.331 -5.371,-7.027 -6.643,-11.766 l -0.876,-3.261 -3.051,1.446 c -9.376,4.444 -9.018,14.744 -6.746,24.129 -1.934,-2.385 -3.964,-4.755 -6.237,-6.889 l -2.456,-2.305 -1.834,2.825 c -2.994,4.613 -4.101,10.834 -4.129,16.865 -0.115,-0.221 -0.23,-0.443 -0.349,-0.664 -1.08,-2.055 -2.197,-4.181 -3.462,-6.172 l -4.491,-7.07 -0.694,8.347 c -0.824,9.912 -2.054,18.197 -4.772,24.657 0.21,-5.107 0.429,-10.879 -2.962,-14.476 l -1.514,-1.606 -1.921,1.086 c -4.67,2.639 -6.117,7.799 -7.392,12.35 -0.825,2.943 -1.538,5.285 -2.648,6.947 0.361,-5.755 -0.146,-13.565 -5.12,-15.757 l -2.53,-1.115 -1.161,2.508 c -0.493,1.06 -0.912,2.192 -1.26,3.4 -0.322,-1.03 -0.679,-2.063 -1.133,-3.043 l -0.794,-1.709 -2.017,0.087 c -5.623,0.269 -8.427,2.231 -9.729,4.599 -1.355,-0.459 -2.816,-0.653 -4.375,-0.579 -2.808,0.135 -5.833,1.126 -9.248,3.031 l -0.205,0.113 -0.972,-3.195 -3.339,3.885 c -2.532,2.947 -3.26,7.059 -3.772,11.189 -2.56,-5.269 -6.408,-10.203 -14.881,-9.798 -1.578,0.076 -3.301,0.344 -5.121,0.798 l -0.617,0.153 -0.492,0.406 c -2.394,1.972 -2.617,5.191 -2.59,8.247 -1.353,-1.763 -3.26,-3.431 -6.451,-3.657 l -0.92,-0.064 -0.78,0.492 c -4.762,3.004 -5.432,8.929 -5.331,15.265 -3.479,-3.139 -6.653,-6.751 -9.48,-10.788 l -2.65,-3.786 -2.151,4.09 c -1.419,2.702 -1.269,5.48 -0.688,8.12 -4.207,-5.163 -7.787,-11.311 -10.693,-18.372 l -1.103,-2.68 -2.648,1.179 c -4.141,1.845 -6,5.496 -7.638,8.717 -0.921,1.81 -1.798,3.535 -2.983,4.757 l -6.193,0.296 c 0.069,-0.172 0.138,-0.344 0.21,-0.517 1.253,-3.088 2.675,-6.587 1.678,-12.155 l -0.784,-4.381 -3.623,2.583 c -3.817,2.723 -10.113,5.586 -15.575,5.848 -2.113,0.101 -3.96,-0.186 -5.52,-0.857 2.537,-2.629 5.121,-5.742 5.401,-10.983 l 0.123,-2.302 -2.233,-0.576 c -3.961,-1.02 -8.513,-1.287 -12.714,-1.278 0.293,-0.833 0.471,-1.819 0.398,-2.998 l -0.053,-0.844 -0.508,-0.676 c -4.007,-5.321 -10.878,-5.7 -16.417,-5.435 -2.37,0.113 -4.848,0.373 -7.243,0.625 -2.344,0.247 -4.771,0.502 -7.034,0.61 -4.906,0.235 -8.29,-0.292 -10.598,-1.754 0.359,0.056 0.718,0.081 1.08,0.064 l 2.814,-0.134 -0.41,-8.661 -2.037,-0.503 c -4.591,-1.136 -9.895,-2.618 -14.94,-4.781 1.513,-0.994 2.565,-2.677 3.01,-4.865 0.82,-4.027 -0.476,-9.165 -2.888,-11.453 l -0.939,-0.889 -1.286,0.132 c -0.986,0.1 -1.946,0.173 -2.854,0.216 -9.089,0.435 -13.025,-2.099 -14.867,-4.995 4.862,-0.466 8.13,-1.886 10.205,-4.412 1.96,-2.387 2.652,-5.628 2.056,-9.633 l -0.379,-2.535 -2.559,0.139 c -2.302,0.124 -4.572,0.599 -6.768,1.059 -0.771,0.162 -1.526,0.32 -2.253,0.455 3.828,-2.396 6.059,-6.299 5.89,-9.823 -0.112,-2.352 -1.255,-4.383 -3.215,-5.716 -1.021,-0.695 -2.232,-1.185 -3.621,-1.467 3.273,-2.277 6.745,-5.795 3.735,-11.689 l -0.981,-1.923 -2.112,0.45 c -1.219,0.258 -2.432,0.418 -3.606,0.475 -8.547,0.408 -14.968,-4.647 -21.09,-9.831 6.653,-0.557 14.927,-2.869 19.57,-7.051 l 3.197,-2.877 -3.916,-1.78 c -1.953,-0.888 -4.06,-1.563 -6.218,-2.138 l 0.05,-1.401 c 0.393,-10.604 -6.551,-13.714 -12.129,-16.214 -2.099,-0.942 -4.026,-1.805 -5.533,-2.956 1.337,-0.019 2.829,0.155 4.4,0.338 2.087,0.243 4.243,0.496 6.555,0.385 1.246,-0.059 2.396,-0.217 3.515,-0.484 l 2.652,-0.631 -0.544,-2.672 c -0.212,-1.043 -0.566,-1.927 -0.984,-2.697 0.897,0.291 1.755,0.581 2.561,0.91 l 2.837,1.158 0.916,-2.926 c 0.879,-2.806 -0.059,-4.932 -1.64,-6.597 l 0.354,-0.036 0.699,-1.357 c 4.454,-8.648 -0.921,-13.268 -4.844,-16.64 -1.942,-1.668 -3.8,-3.266 -4.746,-5.234 0.86,-0.3 1.652,-0.41 2.486,-0.45 1.148,-0.054 2.494,0.035 4.052,0.139 0.655,0.044 1.348,0.089 2.087,0.13 l 2.168,0.116 0.665,-2.065 c 2.418,-7.5 -0.846,-13.6 -4.002,-19.498 -1.626,-3.041 -3.293,-6.156 -4.218,-9.53 0.412,0.128 0.853,0.194 1.327,0.17 l 0.096,-0.004 0.465,-0.051 0.3,-0.107 c 2.691,-0.953 3.533,-3.196 3.678,-5.647 0.771,0.646 1.69,1.183 2.814,1.53 l 2.956,0.91 0.63,-3.029 c 1.144,-5.496 0.667,-12.304 0.154,-18.946 1.107,1.62 2.413,3.089 4.063,4.273 l 3.877,2.777 0.561,-4.736 c 0.593,-5.017 -0.172,-10.642 -0.983,-16.595 -0.755,-5.565 -1.529,-11.25 -1.039,-16.101 2.013,4.768 5.028,8.945 10.229,10.926 l 2.976,1.135 0.761,-3.093 c 1.223,-4.957 1.357,-10.791 1.487,-16.433 0.139,-6.027 0.279,-12.187 1.79,-16.801 0.557,9.185 1.849,17.944 9.088,21.194 l 2.602,1.169 1.135,-2.618 c 1.145,-2.64 1.52,-5.818 1.598,-8.804 1.175,0.925 2.421,1.66 3.861,1.657 l 2.008,-0.004 0.65,-1.9 c 1.09,-3.183 1.565,-7.015 1.476,-12.117 0.258,0.165 0.524,0.342 0.808,0.532 1.811,1.212 4.067,2.722 7.765,2.545 l 1.373,-0.064 0.849,-1.125 c 1.967,-2.783 2.604,-6.415 3.01,-10.106 0.416,0.701 0.78,1.5 1.096,2.398 l 0.721,2.061 2.176,-0.186 c 2.58,-0.221 4.05,-1.535 4.929,-3.097 0.303,0.543 0.638,1.075 1.023,1.585 l 2.16,2.858 2.268,-2.77 c 3.053,-3.732 3.819,-9.02 4.562,-14.133 0.068,-0.471 0.135,-0.936 0.204,-1.397 1.6,2.141 3.286,4.148 4.94,6.118 2.3,2.735 4.472,5.319 6.404,8.206 l 3.237,4.84 1.785,-5.542 c 0.992,-3.085 1.838,-6.32 2.655,-9.45 1.8,-6.887 3.519,-13.469 6.659,-18.564" />
                    </g>
                  </g>
                </g>
              </g>
            </g>
          </g>
        </g>
        <g
           transform="translate(-162.1256,19.1998)"
           id="g4074">
          <g
             id="g4058" />
          <g
             id="g4072">
            <g
               style="opacity:0.5"
               id="g4070"
               clip-path="url(#clipPath62-4)">
              <g
                 id="g4068">
                <g
                   id="g4066">
                  <g
                     id="g4064">
                    <g
                       id="g4062">
                      <path
                         inkscape:connector-curvature="0"
                         id="path4060"
                         style="fill:url(#linearGradient4084);fill-rule:evenodd;stroke:none"
                         d="m 531.574,611.525 c -0.374,1.308 -0.7,2.711 -1.035,4.149 -1.207,5.18 -2.455,10.537 -6.511,13.869 l -1.658,1.361 -1.906,-0.986 c -3.445,-1.782 -4.884,-6.515 -5.213,-11.505 -1.194,2.291 -2.428,4.551 -3.732,6.252 l -1.007,1.313 -1.654,-0.039 c -2.577,-0.059 -4.29,-1.126 -5.493,-2.341 -0.902,1.226 -1.837,2.491 -3.065,3.638 l -1.144,1.068 -1.549,-0.226 c -3.171,-0.464 -4.815,-2.465 -5.883,-4.242 -0.794,2.774 -2.259,5.418 -4.992,7.065 l -2.163,1.304 -1.801,-1.77 c -2.772,-2.724 -4.247,-6.321 -5.672,-9.798 -1.013,-2.474 -1.945,-4.745 -3.212,-6.463 -0.169,1.216 -0.285,2.514 -0.401,3.792 -0.473,5.239 -0.962,10.658 -4.852,13.773 l -0.86,0.69 -1.103,0.024 c -6.947,0.157 -13.535,0.846 -19.347,1.453 -5.583,0.584 -10.858,1.136 -15.58,1.136 -8.136,0 -16.786,-1.482 -22.536,-10.576 0.06,1.466 0.04,2.906 -0.199,4.225 l -0.764,4.222 -3.86,-1.87 c -2.283,-1.105 -3.54,-2.997 -4.427,-4.872 -1.336,2.335 -2.416,4.816 -2.875,7.854 l -0.361,2.392 -2.394,0.346 c -0.483,0.07 -0.957,0.106 -1.408,0.106 -3.074,0 -4.779,-1.596 -5.747,-2.609 -0.82,1.551 -1.306,3.804 -1.779,5.996 -1.006,4.665 -2.258,10.469 -7.716,12.6 l -2.551,0.998 -1.419,-2.342 c -1.82,-3.004 -2.969,-6.503 -3.994,-9.991 -0.784,2.935 -0.801,7.015 -0.817,11.012 l -0.049,10.489 -5.844,-8.025 c -2.621,-3.599 -3.705,-8.343 -4.592,-13.09 -0.131,0.767 -0.287,1.528 -0.491,2.267 l -0.719,2.612 -2.7,-0.23 c -2.963,-0.255 -4.718,-1.689 -5.759,-3.605 -0.116,1.253 -0.198,2.554 -0.28,3.844 -0.227,3.586 -0.462,7.292 -1.418,10.478 l -2.997,9.98 -3.22,-9.908 c -0.365,-1.123 -0.742,-2.233 -1.118,-3.343 -1.333,-3.937 -2.697,-7.96 -3.57,-12.53 -3.678,7.576 -3.056,19.489 -2.451,31.093 0.227,4.347 0.46,8.842 0.465,13.081 l 0.005,4.485 -4.266,-1.384 c -2.267,-0.736 -4.06,-1.902 -5.517,-3.338 0,0.013 0.266,4.245 0.266,4.245 l -4.139,-0.809 c -2.841,-0.555 -5.086,-2.16 -7.046,-3.896 0.895,1.544 1.714,3.301 2.171,5.451 l 0.715,3.367 -3.401,0.528 c -0.568,0.088 -1.184,0.133 -1.829,0.133 -2.65,0 -5.691,-0.75 -8.91,-1.543 -2.077,-0.511 -4.194,-1.033 -6.302,-1.392 0.016,0.023 0.031,0.045 0.046,0.067 5.251,7.689 11.787,17.257 7.671,30.857 l -0.525,1.732 -1.748,0.47 c -0.921,0.247 -1.762,0.368 -2.57,0.368 -1.689,0 -2.929,-0.541 -3.842,-1.124 0.039,0.709 0.092,1.439 0.145,2.16 0.383,5.285 0.819,11.273 -4.031,13.588 l -2.122,1.014 -1.629,-1.697 c -0.633,-0.658 -1.168,-1.374 -1.631,-2.129 0.424,3.123 1.332,6.739 2.716,10.752 l 2.053,5.953 -6.044,-1.764 c -5.336,-1.557 -8.921,-4.708 -11.353,-8.645 0.92,5.326 2.661,10.555 4.375,15.704 2.328,6.993 4.527,13.598 4.633,20.159 l 0.061,3.73 -3.704,-0.444 c -1.423,-0.169 -2.842,-0.343 -4.26,-0.519 l -2.811,2.836 c -3.603,3.634 -7.989,6.317 -12.622,8.603 0.863,0 1.743,-0.017 2.628,-0.039 l 3.543,-0.089 -0.21,3.537 c -0.293,4.942 -4.342,8.579 -8.259,12.098 -1.261,1.133 -2.541,2.283 -3.681,3.461 0.08,-0.014 0.158,-0.027 0.238,-0.04 2.009,-0.344 4.086,-0.701 6.596,-0.702 h 0.001 c 1.116,0 2.212,0.07 3.349,0.214 l 3.178,0.403 -0.35,3.185 c -0.545,4.95 -3.752,10.524 -7.805,15.433 3.176,-1.091 6.437,-2.187 9.432,-2.713 l 4.684,-0.823 -0.926,4.664 c -1.277,6.438 -4.549,10.946 -8.25,14.631 0.105,-0.015 3.611,-0.446 3.611,-0.446 l 0.342,3.302 c 0.72,6.974 -2.914,12.597 -6.429,18.034 -1.503,2.325 -2.974,4.598 -4.089,6.938 0.525,-0.673 1.086,-1.327 1.697,-1.95 l 3.196,-3.256 2.041,4.081 c 2.43,4.858 1.72,11.077 0.611,16.474 5.164,-2.111 11.071,-4.101 18.372,-6.205 l 4.772,-1.375 -0.64,4.925 c -0.479,3.681 -3.684,5.993 -7.076,8.442 -0.133,0.095 -0.264,0.191 -0.397,0.286 2.294,-0.52 4.809,-0.842 7.661,-0.842 1.827,0 3.749,0.138 5.713,0.409 l 4.572,0.632 -2.128,4.096 c -3.929,7.56 -10.48,12.163 -16.816,16.614 -0.341,0.24 -0.679,0.477 -1.014,0.714 1.276,0.102 2.594,0.172 3.896,0.242 4.212,0.224 8.568,0.455 12.149,1.748 l 2.179,0.787 -0.027,2.316 c -0.066,5.423 -2.486,8.728 -4.431,11.383 -0.879,1.201 -1.669,2.279 -2.241,3.483 1.803,-0.522 3.84,-0.965 6.314,-0.965 0.955,0 1.949,0.068 2.954,0.2 l 2.856,0.376 -0.024,2.881 c -0.023,2.632 -0.228,5.077 -0.535,7.4 2.405,-1.615 4.974,-2.989 7.536,-4.266 0.239,-1.013 0.442,-2.095 0.654,-3.221 0.325,-1.728 0.661,-3.515 1.164,-5.21 l 1.312,-4.423 3.729,2.718 c 7.221,5.263 7.627,17.366 6.331,27.837 3.378,-4.018 5.816,-8.413 7.023,-13.957 l 0.831,-3.815 3.604,1.502 c 11.076,4.615 11.231,16.532 9.125,27.497 2.103,-2.861 4.316,-5.711 6.824,-8.301 l 2.709,-2.798 2.275,3.162 c 3.713,5.162 5.335,12.288 5.698,19.251 0.123,-0.261 0.245,-0.523 0.368,-0.787 1.134,-2.433 2.307,-4.949 3.659,-7.319 l 4.796,-8.414 1.262,9.602 c 1.499,11.404 3.377,20.905 6.874,28.218 -0.524,-5.888 -1.097,-12.543 2.622,-16.885 l 1.66,-1.938 2.279,1.148 c 5.539,2.791 7.494,8.67 9.22,13.857 1.116,3.353 2.067,6.018 3.44,7.876 -0.732,-6.627 -0.577,-15.675 5.046,-18.481 l 2.861,-1.428 1.48,2.833 c 0.626,1.198 1.173,2.481 1.641,3.858 0.315,-1.208 0.67,-2.42 1.142,-3.578 l 0.822,-2.019 2.335,-0.01 c 6.509,0 9.857,2.112 11.491,4.777 1.539,-0.607 3.216,-0.913 5.021,-0.913 3.251,0 6.8,0.978 10.85,2.99 l 0.242,0.121 0.947,-3.745 4.07,4.303 c 3.088,3.264 4.155,7.973 4.976,12.716 2.664,-6.227 6.837,-12.138 16.647,-12.138 1.826,0 3.831,0.214 5.958,0.637 l 0.723,0.144 0.591,0.441 c 2.873,2.146 3.308,5.851 3.447,9.383 1.464,-2.111 3.575,-4.144 7.248,-4.58 l 1.059,-0.125 0.928,0.525 c 5.666,3.208 6.767,10.014 7,17.338 3.845,-3.818 7.312,-8.165 10.354,-12.985 l 2.852,-4.518 2.709,4.605 c 1.79,3.042 1.77,6.258 1.245,9.341 4.573,-6.197 8.369,-13.496 11.336,-21.811 l 1.126,-3.157 3.124,1.216 c 4.885,1.902 7.232,6.016 9.302,9.646 1.164,2.041 2.274,3.985 3.709,5.331 h 7.17 c -0.09,-0.195 -0.18,-0.39 -0.27,-0.587 -1.619,-3.496 -3.454,-7.459 -2.611,-13.946 l 0.664,-5.105 4.328,2.786 c 4.558,2.933 11.988,5.893 18.312,5.893 2.446,0 4.563,-0.433 6.328,-1.294 -3.076,-2.896 -6.233,-6.349 -6.845,-12.388 l -0.269,-2.653 2.548,-0.787 c 4.519,-1.397 9.76,-1.957 14.615,-2.179 -0.386,-0.945 -0.646,-2.075 -0.626,-3.441 l 0.015,-0.978 0.548,-0.808 c 4.335,-6.367 12.25,-7.184 18.663,-7.184 2.745,0 5.62,0.164 8.4,0.323 2.723,0.155 5.539,0.315 8.159,0.315 5.68,0 9.56,-0.794 12.144,-2.609 -0.412,0.082 -0.825,0.132 -1.244,0.132 h -3.257 l -0.004,-10.025 2.324,-0.695 c 5.24,-1.565 11.285,-3.57 16.992,-6.347 -1.803,-1.064 -3.111,-2.951 -3.746,-5.452 -1.168,-4.608 0.045,-10.614 2.705,-13.389 l 1.034,-1.078 1.494,0.08 c 1.143,0.062 2.256,0.093 3.308,0.093 10.522,0 14.928,-3.144 16.897,-6.59 -5.643,-0.27 -9.496,-1.73 -12.032,-4.533 -2.396,-2.65 -3.374,-6.354 -2.906,-11.013 l 0.297,-2.949 2.964,0.019 c 2.666,0.017 5.313,0.44 7.875,0.85 0.9,0.144 1.781,0.285 2.628,0.402 -4.554,-2.558 -7.346,-6.942 -7.346,-11.022 0,-2.724 1.208,-5.131 3.399,-6.78 1.14,-0.858 2.51,-1.491 4.101,-1.895 -3.907,-2.449 -8.11,-6.32 -4.961,-13.293 l 1.028,-2.276 2.464,0.402 c 1.422,0.232 2.832,0.349 4.193,0.349 9.894,0 17.031,-6.193 23.816,-12.518 -7.715,-0.275 -17.399,-2.49 -22.994,-7.064 l -3.851,-3.147 4.424,-2.272 c 2.207,-1.133 4.605,-2.029 7.065,-2.811 l -0.137,-1.615 c -1.037,-12.226 6.811,-16.204 13.115,-19.399 2.372,-1.202 4.55,-2.306 6.229,-3.719 -1.546,0.05 -3.26,0.333 -5.064,0.632 -2.397,0.397 -4.875,0.808 -7.551,0.808 -1.442,0 -2.779,-0.12 -4.086,-0.366 l -3.098,-0.582 0.481,-3.116 c 0.188,-1.215 0.546,-2.258 0.989,-3.169 -1.023,0.383 -1.996,0.767 -2.91,1.191 l -3.213,1.495 -1.219,-3.328 c -1.169,-3.193 -0.205,-5.702 1.531,-7.712 l -0.412,-0.022 -0.882,-1.528 c -5.622,-9.744 0.331,-15.375 4.677,-19.487 2.149,-2.035 4.209,-3.982 5.191,-6.308 -1.009,-0.3 -1.929,-0.382 -2.895,-0.382 -1.329,0 -2.879,0.178 -4.673,0.384 -0.754,0.086 -1.551,0.178 -2.403,0.265 l -2.497,0.255 -0.883,-2.349 c -3.207,-8.529 0.225,-15.755 3.546,-22.744 1.711,-3.601 3.463,-7.289 4.346,-11.239 -0.469,0.172 -0.975,0.271 -1.524,0.271 h -0.11 l -0.54,-0.034 -0.353,-0.107 c -3.161,-0.952 -4.258,-3.497 -4.56,-6.32 -0.855,0.789 -1.886,1.461 -3.166,1.924 l -3.363,1.213 -0.895,-3.462 c -1.625,-6.287 -1.452,-14.176 -1.224,-21.876 -1.19,1.932 -2.617,3.702 -4.458,5.159 l -4.325,3.423 -0.908,-5.44 c -0.963,-5.762 -0.389,-12.3 0.217,-19.222 0.566,-6.469 1.145,-13.077 0.312,-18.654 -2.063,5.616 -5.314,10.608 -11.212,13.184 l -3.374,1.473 -1.051,-3.528 c -1.685,-5.658 -2.162,-12.389 -2.624,-18.897 -0.493,-6.956 -0.996,-14.063 -2.995,-19.308 -0.137,10.64 -1.145,20.827 -9.326,24.98 l -2.942,1.495 -1.456,-2.962 c -1.467,-2.986 -2.077,-6.635 -2.332,-10.08 -1.304,1.133 -2.706,2.051 -4.368,2.128 l -2.318,0.104 -0.857,-2.157 c -1.434,-3.616 -2.194,-8.016 -2.374,-13.914 -0.289,0.204 -0.587,0.425 -0.903,0.658 -2.025,1.502 -4.548,3.37 -8.829,3.37 h -1.589 l -1.042,-1.253 c -2.426,-3.104 -3.363,-7.265 -4.035,-11.506 -0.442,0.834 -0.818,1.777 -1.133,2.831 l -0.721,2.42 -2.522,-0.094 c -2.993,-0.112 -4.764,-1.55 -5.864,-3.306 -0.322,0.644 -0.678,1.277 -1.095,1.888 l -2.336,3.419 -2.773,-3.075 c -3.732,-4.139 -4.91,-10.205 -6.049,-16.072 -0.106,-0.538 -0.209,-1.072 -0.314,-1.6 -1.729,2.562 -3.565,4.972 -5.368,7.338 -2.505,3.286 -4.871,6.392 -6.942,9.833 l -3.474,5.769 -2.366,-6.304 c -1.317,-3.509 -2.473,-7.199 -3.59,-10.768 -2.458,-7.856 -4.808,-15.364 -8.717,-21.076" />
                    </g>
                  </g>
                </g>
              </g>
            </g>
          </g>
        </g>
      </g>
    </g>
  </g>
</svg>
